PathFileType	4	(X/Y/Z)	Walk9.trc
DataRate	CameraRate	NumFrames	NumMarkers	Units	OrigDataRate	OrigDataStartFrame	OrigNumFrames
200.000000	200.000000	4	56	mm	200.000000	314	502
Frame#	Times		RBHD		C7		RBack		RASI		RACR1		RUA1		RElbow		RFA1		RWRR		RCAR		LACR1		LElbow		LElbowM		LFA1		RTH1		RTH3		RTH2		RTH4		RLFC		RTB3		RTB2		RTB4		RMT1		RMT5		LTH3		LTH2		LWRU		LTH4		LPSI		CLAV		RPSI		LLFC		LTB1		LBHD		T10		LTB4		RWRU		LTB2		LMT1		LTH1		LWRR		LFHD		RFHD		LCAL		LLMAL		LMT5		RElbowM		LToe		LTB3		LMMAL		RCAL		RToe		LUA1		RLMAL		RMMAL		LCAR
			X1	Y1	Z1	X2	Y2	Z2	X3	Y3	Z3	X4	Y4	Z4	X5	Y5	Z5	X6	Y6	Z6	X7	Y7	Z7	X8	Y8	Z8	X9	Y9	Z9	X10	Y10	Z10	X11	Y11	Z11	X12	Y12	Z12	X13	Y13	Z13	X14	Y14	Z14	X15	Y15	Z15	X16	Y16	Z16	X17	Y17	Z17	X18	Y18	Z18	X19	Y19	Z19	X20	Y20	Z20	X21	Y21	Z21	X22	Y22	Z22	X23	Y23	Z23	X24	Y24	Z24	X25	Y25	Z25	X26	Y26	Z26	X27	Y27	Z27	X28	Y28	Z28	X29	Y29	Z29	X30	Y30	Z30	X31	Y31	Z31	X32	Y32	Z32	X33	Y33	Z33	X34	Y34	Z34	X35	Y35	Z35	X36	Y36	Z36	X37	Y37	Z37	X38	Y38	Z38	X39	Y39	Z39	X40	Y40	Z40	X41	Y41	Z41	X42	Y42	Z42	X43	Y43	Z43	X44	Y44	Z44	X45	Y45	Z45	X46	Y46	Z46	X47	Y47	Z47	X48	Y48	Z48	X49	Y49	Z49	X50	Y50	Z50	X51	Y51	Z51	X52	Y52	Z52	X53	Y53	Z53	X54	Y54	Z54	X55	Y55	Z55	X56	Y56	Z56

314	1.57	146.87	1559	343.71	122.05	1422.1	282.11	55.123	1329.2	386.42	199.64	915.76	423.33	195.8	1378.1	425.02	199.37	1201.6	526.81	208.22	1076.8	580.58	344	1005.9	580.05	469.04	976.17	517.37	502.89	923.44	552.44	144.34	1401.9	103.22	2.2787	1100.3	20.95	-5.2959	1097.6	99.493	27.135	952.51	-34.091	106.35	721.81	456.95	58.155	540.63	429.17	149.22	619.35	417.72	82.751	629.38	446.14	21.555	441.24	410.46	-124.99	197.31	318.65	-70.191	272.21	395.82	-60.769	270.87	322.62	-129.06	39.245	266.89	-154.3	34.617	355.36	293.72	566.71	98.607	320.42	678.23	113.77	-29.949	846.29	-30.041	256.8	647.24	80.699	39.43	943.79	198.95	254.84	1340.9	260.5	27.751	944.62	303.08	338.66	464.15	119.34	397.46	386.09	182.97	142.19	1555.8	204.95	25.638	1113.5	265.56	402.87	293.4	188.86	434.61	917.22	554.52	379.96	287.68	120.98	524.21	42.947	238.83	217.36	736.87	74.598	48.441	830.8	-10.43	324.04	1589.3	221.24	327.62	1597.6	302.28	317.68	28.148	217.85	359.48	70.48	170.33	495.97	35.22	159.1	192.13	1026.9	495.23	565.38	53.451	222.22	410.53	201.45	195.01	391.16	92.746	253.92	-301.16	129.49	316.76	-78.373	24.774	285.04	59.86	1216.2	23.357	-233.47	144.13	358.82	-205.1	146.55	271.44	18.742	783.41	-56.824
315	1.575	153.63	1559.3	342.37	129.52	1422.7	281.28	62.709	1330.3	386.12	206.51	916.06	423.05	203.24	1379.1	424.51	205.67	1202.4	526.47	213.57	1077.5	580.25	349.03	1005.6	579.71	473.62	974.99	517.39	507.16	921.83	552.53	151.67	1402.2	102.5	9.8674	1099.9	20.83	2.0395	1097.2	99.511	33.987	952.48	-34.483	114.2	721.47	456.37	67.865	539.67	428.78	157.89	619.38	417.43	91.413	628.74	445.76	31.842	440.57	410.78	-118.84	198.83	319.69	-62.95	273.36	396.31	-52.934	271.39	323.21	-128.22	39.461	266.95	-153.17	35.197	355.34	301.73	568.15	98.004	327.34	680.04	113.23	-22.739	846.11	-30.186	263.75	648.34	80.194	46.219	944.57	199.05	262.19	1341.6	259.78	34.39	944.98	303.33	346.3	464.4	119.02	403.67	385.7	182.29	148.89	1555.6	203.83	32.412	1114.1	265.72	407.62	292.87	188.23	438.73	915.93	554.34	383.8	287.24	120.51	525.96	42.858	238.5	224.01	737.41	73.265	55.415	830.6	-10.987	331.03	1590	219.97	334.47	1598.6	301.06	318.6	28.593	217.97	360.9	70.466	170.22	497.08	34.577	158.4	197.18	1027.5	494.65	567.3	52.739	222.37	413.87	200.86	194.46	392.6	92.657	253.83	-296.12	135.71	317.09	-78.377	24.861	285.5	66.91	1216.1	22.977	-228.49	148.1	359.26	-199.95	149.52	272.41	25.65	783.4	-57.557
316	1.58	160.52	1560	341.06	136.69	1423.2	280.56	70.137	1331.4	385.98	213.29	916.39	422.71	211.05	1379.7	423.84	211.85	1203.1	526.08	218.94	1078.4	579.8	353.6	1005.3	579.14	478.1	973.52	517.22	511	920.3	552.46	158.65	1402.2	101.95	17.337	1100	20.697	9.6327	1096.9	99.617	41.241	952.41	-34.83	121.98	720.99	455.86	77.775	538.62	428.56	167.21	619.59	416.95	100.34	628.14	445.3	42.605	439.56	411.13	-112.29	200.23	320.88	-55.498	274.34	397.2	-45.076	271.75	323.84	-127.26	39.654	267.01	-152.13	35.82	355.06	310	569.84	97.886	333.87	682.1	113.08	-15.9	845.94	-30.311	271.12	649.43	79.793	52.549	945.4	199.04	269.15	1342.1	259.12	40.952	945.54	303.54	353.09	464.6	118.91	409.76	385.34	181.49	155.74	1555.6	202.79	39.118	1114.9	265.85	412.26	292.42	187.57	442.53	914.62	554.1	387.32	286.89	120.28	527.18	41.895	238.86	229.9	738.01	72.079	62.664	830.54	-11.645	337.5	1590.8	218.81	341.01	1599.6	299.7	319.18	28.935	217.89	362.22	70.36	170.1	498.63	34.011	157.77	202.14	1028.4	494.41	568.68	51.701	222.96	416.99	200.18	194.05	394.01	92.643	253.92	-290.59	142.15	317.37	-78.376	24.935	285.89	74.581	1215.9	22.679	-223.54	152.23	359.9	-194.04	152.78	273.11	32.625	783.44	-58.032
317	1.585	167.37	1560.4	339.92	143.9	1424.1	280.03	77.544	1332.2	385.64	220.24	916.65	422.28	218.48	1380.7	423.23	217.99	1203.8	525.79	223.83	1078.8	579.34	357.92	1004.8	578.82	482.29	971.78	517.05	514.67	918.43	552.4	165.85	1402.4	101.42	24.735	1100	20.452	17.18	1097	99.585	48.691	952.53	-35.073	129.99	720.65	455.11	88.05	537.48	428.61	176.61	619.49	416.61	109.47	627.35	444.91	53.653	438.6	411.56	-104.7	201.94	322.05	-47.656	275.45	398.08	-36.582	272.19	324.77	-126.23	39.739	267	-151.19	36.472	354.61	318.18	571.48	98.129	340.73	684.33	112.69	-8.4543	845.71	-30.383	278.22	650.61	79.489	59.145	946.07	198.96	276.37	1342.5	258.5	47.532	945.67	303.65	359.12	464.51	119.16	415.84	384.86	180.49	162.6	1555.7	201.52	45.75	1115.6	265.77	416.52	291.54	186.83	446.32	913.37	553.97	390.72	286.37	120.06	527.92	41.183	239.79	235.91	738.51	71.095	69.757	830.55	-12.192	344.28	1591.5	217.32	347.8	1600.6	298.24	319.27	29.259	217.66	363.44	70.401	170.09	499.3	33.589	157.37	206.8	1029.5	493.7	569.77	48.067	222.3	419.82	199.52	193.83	394.93	92.552	254.17	-284.02	149.02	317.36	-78.545	24.872	286.66	82.126	1215.9	22.416	-217.51	156.75	360.4	-187.55	156.02	273.81	39.759	783.63	-58.733
